<svg xmlns="http://www.w3.org/2000/svg" width="1200" height="292" viewBox="0 0 1200 292" role="img" aria-labelledby="title description">
  <title id="title">Manuel David Maya Rosero</title>
  <desc id="description">Software engineer in Paris. Data engineering, backend systems and applied AI.</desc>
  <defs>
    <clipPath id="rounded"><rect width="1200" height="292" rx="20"/></clipPath>
  </defs>
  <g clip-path="url(#rounded)">
    <rect width="1200" height="292" fill="#101b31"/>
    <circle cx="1160" cy="280" r="220" fill="#8e9dff" opacity="0.035"/>
    <circle cx="1160" cy="280" r="160" fill="none" stroke="#8e9dff" stroke-opacity="0.07"/>
    <rect x="52" y="47" width="36" height="3" rx="1.5" fill="#85a4ff"/>
    <g font-family="Segoe UI, Arial, sans-serif">
      <text font-family="Arial" x="102" y="55" font-size="13" font-weight="600" letter-spacing="2.1" fill="#b8c6e4">SOFTWARE ENGINEER</text>
      <text font-family="Arial" x="52" y="118" font-size="42" font-weight="600" letter-spacing="-1" fill="#f3f6ff">Manuel David Maya Rosero</text>
      <text font-family="Arial" x="54" y="161" font-size="22" fill="#bacbfa">Data engineering · Backend systems · Applied AI</text>
      <text font-family="Arial" x="54" y="216" font-size="17" fill="#aab8d1">Architecture, development &amp; reliable delivery</text>
      <circle cx="59" cy="247" r="4" fill="#6adfc9"/>
      <text font-family="Arial" x="73" y="253" font-size="14" fill="#bac6dd">Paris, France</text>
    </g>
    <g fill="none" stroke="#8094c3" stroke-width="1.3">
      <path d="M940 97 V125 H1032 V153"/>
      <path d="M1032 204 V226 H940"/>
    </g>
    <g font-family="Segoe UI, Arial, sans-serif" font-size="16">
      <rect x="858" y="46" width="180" height="51" rx="9" fill="#18243d" stroke="#4c628f"/>
      <path d="M878 64 L885 59 L892 64 V76 L885 81 L878 76 Z M878 64 L885 69 L892 64 M885 69 V81" fill="none" stroke="#85a4ff" stroke-width="1.3"/>
      <text font-family="Arial" font-size="16" x="909" y="77" fill="#d7e2fb">Data</text>
      <rect x="956" y="153" width="180" height="51" rx="9" fill="#1c2942" stroke="#557594"/>
      <path d="M984 169 L977 178 L984 187 M1000 169 L1007 178 L1000 187 M994 168 L990 188" fill="none" stroke="#6adfc9" stroke-width="1.5"/>
      <text font-family="Arial" font-size="16" x="1020" y="184" fill="#d7e2fb">Systems</text>
      <circle cx="936" cy="226" r="4" fill="#6adfc9"/>
      <circle cx="940" cy="120" r="3" fill="#85a4ff"/>
    </g>
  </g>
</svg>
